<svg width="25" height="29" viewBox="0 0 25 29" fill="none" xmlns="http://www.w3.org/2000/svg">
<path d="M20.6576 21.3835H19.1128L19.1199 20.4794C19.1199 20.0775 19.4474 19.7488 19.8477 19.7488H19.9462C20.3471 19.7488 20.6755 20.0775 20.6755 20.4794L20.6576 21.3835ZM14.8637 19.446C14.4719 19.446 14.1513 19.7113 14.1513 20.0363V24.4336C14.1513 24.7579 14.4719 25.0226 14.8637 25.0226C15.2571 25.0226 15.578 24.7579 15.578 24.4336V20.0363C15.578 19.711 15.2571 19.446 14.8637 19.446ZM24.2728 16.9862V25.3516C24.2728 27.3582 22.5459 29.0001 20.4356 29.0001H4.65568C2.54446 29.0001 0.818207 27.3582 0.818207 25.3516V16.9862C0.818207 14.9797 2.54446 13.3374 4.65568 13.3374H20.4356C22.5459 13.3374 24.2728 14.9797 24.2728 16.9862ZM5.70832 26.2599L5.70707 17.4479L7.66318 17.4485V16.1429L2.44877 16.135V17.4186L4.07651 17.4233V26.2599H5.70832ZM11.572 18.7605H9.94109V23.4661C9.94109 24.1468 9.98206 24.4871 9.93859 24.6072C9.80599 24.9722 9.20993 25.3595 8.97757 24.6466C8.93817 24.5218 8.97288 24.1452 8.97226 23.4985L8.96569 18.7605H7.34389L7.34889 23.4238C7.35014 24.1386 7.33294 24.6718 7.35452 24.9142C7.39424 25.3418 7.38016 25.8407 7.77389 26.1253C8.50755 26.6582 9.91388 26.0459 10.2657 25.2845L10.2626 26.2561L11.5723 26.2577V18.7605H11.572ZM16.7892 24.149L16.7857 20.2326C16.7845 18.74 15.6765 17.846 14.1723 19.0536L14.1789 16.1419L12.5495 16.1445L12.5417 26.1946L13.8811 26.1748L14.0031 25.5489C15.7156 27.1319 16.7917 26.0475 16.7892 24.149ZM21.8932 23.6299L20.6701 23.6365C20.6695 23.6854 20.6679 23.7418 20.6673 23.8033V24.4909C20.6673 24.8587 20.3655 25.1584 19.999 25.1584H19.7595C19.3923 25.1584 19.0909 24.8587 19.0909 24.4909V24.4147V23.6583V22.6823H21.891V21.6202C21.891 20.844 21.8713 20.0681 21.8075 19.6244C21.6074 18.2207 19.6522 17.9979 18.6646 18.7164C18.3544 18.9408 18.1177 19.2411 17.9801 19.6448C17.8409 20.0485 17.7721 20.6001 17.7721 21.3006V23.6356C17.7724 27.5176 22.4514 26.969 21.8932 23.6299ZM15.6205 10.952C15.7047 11.1581 15.8354 11.3252 16.0127 11.4512C16.1878 11.5754 16.412 11.6378 16.68 11.6378C16.9152 11.6378 17.1235 11.5738 17.3049 11.4418C17.4856 11.3103 17.6379 11.114 17.7621 10.8521L17.7314 11.4969H19.5493V3.70605H18.1183V9.76957C18.1183 10.098 17.85 10.3668 17.5219 10.3668C17.1957 10.3668 16.9265 10.098 16.9265 9.76957V3.70605H15.4329V8.96089C15.4329 9.63027 15.4448 10.0765 15.4645 10.3028C15.4854 10.5275 15.5364 10.7431 15.6205 10.952ZM10.1115 6.55187C10.1115 5.80401 10.1734 5.22004 10.2963 4.799C10.4202 4.37953 10.6425 4.04232 10.9646 3.78799C11.2858 3.5324 11.6971 3.40445 12.1971 3.40445C12.6177 3.40445 12.978 3.48765 13.2791 3.65058C13.5815 3.81446 13.8145 4.02719 13.9765 4.28971C14.1413 4.55318 14.2533 4.82389 14.313 5.10091C14.374 5.38171 14.404 5.80527 14.404 6.37664V8.34697C14.404 9.06961 14.3752 9.60127 14.3196 9.9388C14.2642 10.2773 14.1454 10.5912 13.9615 10.8855C13.7798 11.1767 13.5456 11.3945 13.2616 11.5335C12.9745 11.6737 12.6462 11.7424 12.2753 11.7424C11.8609 11.7424 11.5119 11.6847 11.2242 11.5644C10.9356 11.4446 10.7126 11.264 10.5537 11.0242C10.3933 10.784 10.2804 10.4916 10.2122 10.1506C10.1437 9.80991 10.1112 9.29747 10.1112 8.61454V6.55187H10.1115ZM11.5354 9.64666C11.5354 10.0879 11.8612 10.4481 12.2581 10.4481C12.6552 10.4481 12.9795 10.0879 12.9795 9.64666V5.49926C12.9795 5.05868 12.6552 4.69846 12.2581 4.69846C11.8612 4.69846 11.5354 5.05868 11.5354 5.49926V9.64666ZM6.50421 11.7408H8.21921L8.22109 5.76557L10.2476 0.646875H8.37182L7.29448 4.44886L6.20181 0.636475H4.34546L6.5014 5.7684L6.50421 11.7408Z" fill="black"/>
</svg>
